<svg xmlns="http://www.w3.org/2000/svg" xmlns:xlink="http://www.w3.org/1999/xlink" viewBox="0,0,256,256" width="32px" height="32px"><g fill="#339af0" fill-rule="nonzero" stroke="none" stroke-width="1" stroke-linecap="butt" stroke-linejoin="miter" stroke-miterlimit="10" stroke-dasharray="" stroke-dashoffset="0" font-family="none" font-weight="none" font-size="none" text-anchor="none" style="mix-blend-mode: normal"><g transform="scale(8,8)"><path d="M6.5,6c-0.6,0 -1.09922,0.10078 -1.69922,0.30078c-2.3,0.9 -3.4,3.59844 -2.5,5.89844l4.5,11c0.7,1.7 2.29961,2.80078 4.09961,2.80078h0.09961c1.8,0 3.39961,-0.99961 4.09961,-2.59961l0.90039,-2.40039l0.90039,2.40039c0.7,1.6 2.29961,2.59961 4.09961,2.59961h0.09961c1.8,0 3.39961,-1.10078 4.09961,-2.80078l4.5,-11c0.9,-2.3 -0.2,-4.89844 -2.5,-5.89844c-0.6,-0.2 -1.09922,-0.30078 -1.69922,-0.30078c-1.8,0 -3.49922,1.10078 -4.19922,2.80078l-0.60156,1.69922l-0.69922,-1.90039c-0.7,-1.6 -2.3,-2.59961 -4,-2.59961c-0.6,0 -1.30039,0.10039 -1.90039,0.40039c-1,0.5 -1.69922,1.19922 -2.19922,2.19922l-0.09961,0.09961l-0.70117,1.90039l-0.59961,-1.69922c-0.5,-1.8 -2.2,-2.90039 -4,-2.90039zM6.5,8c1,0 1.90078,0.6 2.30078,1.5l0.5,1.59961l1.79883,5.5l2,-5.40039l0.59961,-1.59961v-0.09961v-0.09961c0.2,-0.4 0.60078,-0.90117 1.30078,-1.20117c0.3,-0.1 0.6,-0.19922 1,-0.19922c1,0 1.80078,0.60039 2.30078,1.40039l0.69922,1.79883l2,5.40039l1.80078,-5.5l0.5,-1.59961c0.3,-0.9 1.19922,-1.5 2.19922,-1.5c0.3,0 0.60039,0.09922 0.90039,0.19922c0.6,0.3 1.10039,0.70078 1.40039,1.30078c0.3,0.6 0.3,1.30039 0,1.90039l-4.5,11c-0.4,1 -1.30117,1.59961 -2.20117,1.59961h-0.09961c-1,0 -1.80078,-0.60039 -2.30078,-1.40039l-0.89844,-2.29883l-1.80078,-4.90039l-1.90039,4.90039l-0.90039,2.29883c-0.4,0.8 -1.19922,1.40039 -2.19922,1.40039c-1,0 -1.90078,-0.59961 -2.30078,-1.59961l-4.5,-11c-0.3,-0.6 -0.2,-1.30039 0,-1.90039c0.3,-0.6 0.70039,-1.10078 1.40039,-1.30078c0.3,-0.1 0.60039,-0.19922 0.90039,-0.19922z"></path></g></g></svg>