<svg xmlns="http://www.w3.org/2000/svg"  viewBox="0 0 64 64" width="64px" height="64px" clip-rule="evenodd" baseProfile="basic"><linearGradient id="Mx9CbKvalKtwIHElcPmJ3a" x1="32" x2="32" y1="10" y2="54" gradientUnits="userSpaceOnUse"><stop offset="0" stop-color="#6dc7ff"/><stop offset=".699" stop-color="#e6abff"/></linearGradient><path fill="url(#Mx9CbKvalKtwIHElcPmJ3a)" fill-rule="evenodd" d="M37.18,26.03l-0.01,0.01l-0.47,0.23L30,29.62v17.76 l14-7V22.62L37.18,26.03z M42.45,38.39l-10,5c-0.15,0.08-0.3,0.11-0.45,0.11c-0.37,0-0.72-0.2-0.89-0.55 c-0.25-0.5-0.05-1.1,0.44-1.34l10-5c0.5-0.25,1.1-0.05,1.34,0.44C43.14,37.55,42.94,38.15,42.45,38.39z M42.45,33.39l-10,5 c-0.15,0.08-0.3,0.11-0.45,0.11c-0.37,0-0.72-0.2-0.89-0.55c-0.25-0.5-0.05-1.1,0.44-1.34l10-5c0.5-0.25,1.1-0.05,1.34,0.44 C43.14,32.55,42.94,33.15,42.45,33.39z M42.45,28.39l-10,5c-0.15,0.08-0.3,0.11-0.45,0.11c-0.37,0-0.72-0.2-0.89-0.55 c-0.25-0.5-0.05-1.1,0.44-1.34l10-5c0.5-0.25,1.1-0.05,1.34,0.44C43.14,27.55,42.94,28.15,42.45,28.39z M24.13,23.83l7.1,2.94 l2.8-1.4L22,20.49v16.85l6,2.57v-2.32l-4.63-1.92c-0.51-0.21-0.76-0.79-0.54-1.3c0.21-0.51,0.8-0.75,1.3-0.54l3.87,1.6v-2.84 l-4.63-1.92c-0.51-0.21-0.76-0.79-0.54-1.3c0.21-0.51,0.8-0.75,1.3-0.54l3.87,1.6V29c0-0.38,0.21-0.72,0.55-0.89l0.32-0.16 l-5.5-2.28c-0.51-0.21-0.76-0.79-0.54-1.3C23.04,23.86,23.63,23.62,24.13,23.83z M37.18,26.03l-0.01,0.01l-0.47,0.23L30,29.62 v17.76l14-7V22.62L37.18,26.03z M42.45,38.39l-10,5c-0.15,0.08-0.3,0.11-0.45,0.11c-0.37,0-0.72-0.2-0.89-0.55 c-0.25-0.5-0.05-1.1,0.44-1.34l10-5c0.5-0.25,1.1-0.05,1.34,0.44C43.14,37.55,42.94,38.15,42.45,38.39z M42.45,33.39l-10,5 c-0.15,0.08-0.3,0.11-0.45,0.11c-0.37,0-0.72-0.2-0.89-0.55c-0.25-0.5-0.05-1.1,0.44-1.34l10-5c0.5-0.25,1.1-0.05,1.34,0.44 C43.14,32.55,42.94,33.15,42.45,33.39z M42.45,28.39l-10,5c-0.15,0.08-0.3,0.11-0.45,0.11c-0.37,0-0.72-0.2-0.89-0.55 c-0.25-0.5-0.05-1.1,0.44-1.34l10-5c0.5-0.25,1.1-0.05,1.34,0.44C43.14,27.55,42.94,28.15,42.45,28.39z M24.13,23.83l7.1,2.94 l2.8-1.4L22,20.49v16.85l6,2.57v-2.32l-4.63-1.92c-0.51-0.21-0.76-0.79-0.54-1.3c0.21-0.51,0.8-0.75,1.3-0.54l3.87,1.6v-2.84 l-4.63-1.92c-0.51-0.21-0.76-0.79-0.54-1.3c0.21-0.51,0.8-0.75,1.3-0.54l3.87,1.6V29c0-0.38,0.21-0.72,0.55-0.89l0.32-0.16 l-5.5-2.28c-0.51-0.21-0.76-0.79-0.54-1.3C23.04,23.86,23.63,23.62,24.13,23.83z M24.13,23.83l7.1,2.94l2.8-1.4L22,20.49v16.85 l6,2.57v-2.32l-4.63-1.92c-0.51-0.21-0.76-0.79-0.54-1.3c0.21-0.51,0.8-0.75,1.3-0.54l3.87,1.6v-2.84l-4.63-1.92 c-0.51-0.21-0.76-0.79-0.54-1.3c0.21-0.51,0.8-0.75,1.3-0.54l3.87,1.6V29c0-0.38,0.21-0.72,0.55-0.89l0.32-0.16l-5.5-2.28 c-0.51-0.21-0.76-0.79-0.54-1.3C23.04,23.86,23.63,23.62,24.13,23.83z M37.18,26.03l-0.01,0.01l-0.47,0.23L30,29.62v17.76l14-7 V22.62L37.18,26.03z M42.45,38.39l-10,5c-0.15,0.08-0.3,0.11-0.45,0.11c-0.37,0-0.72-0.2-0.89-0.55c-0.25-0.5-0.05-1.1,0.44-1.34 l10-5c0.5-0.25,1.1-0.05,1.34,0.44C43.14,37.55,42.94,38.15,42.45,38.39z M42.45,33.39l-10,5c-0.15,0.08-0.3,0.11-0.45,0.11 c-0.37,0-0.72-0.2-0.89-0.55c-0.25-0.5-0.05-1.1,0.44-1.34l10-5c0.5-0.25,1.1-0.05,1.34,0.44C43.14,32.55,42.94,33.15,42.45,33.39z M42.45,28.39l-10,5c-0.15,0.08-0.3,0.11-0.45,0.11c-0.37,0-0.72-0.2-0.89-0.55c-0.25-0.5-0.05-1.1,0.44-1.34l10-5 c0.5-0.25,1.1-0.05,1.34,0.44C43.14,27.55,42.94,28.15,42.45,28.39z M37.18,26.03l-0.01,0.01l-0.47,0.23L30,29.62v17.76l14-7V22.62 L37.18,26.03z M42.45,38.39l-10,5c-0.15,0.08-0.3,0.11-0.45,0.11c-0.37,0-0.72-0.2-0.89-0.55c-0.25-0.5-0.05-1.1,0.44-1.34l10-5 c0.5-0.25,1.1-0.05,1.34,0.44C43.14,37.55,42.94,38.15,42.45,38.39z M42.45,33.39l-10,5c-0.15,0.08-0.3,0.11-0.45,0.11 c-0.37,0-0.72-0.2-0.89-0.55c-0.25-0.5-0.05-1.1,0.44-1.34l10-5c0.5-0.25,1.1-0.05,1.34,0.44C43.14,32.55,42.94,33.15,42.45,33.39z M42.45,28.39l-10,5c-0.15,0.08-0.3,0.11-0.45,0.11c-0.37,0-0.72-0.2-0.89-0.55c-0.25-0.5-0.05-1.1,0.44-1.34l10-5 c0.5-0.25,1.1-0.05,1.34,0.44C43.14,27.55,42.94,28.15,42.45,28.39z M24.13,23.83l7.1,2.94l2.8-1.4L22,20.49v16.85l6,2.57v-2.32 l-4.63-1.92c-0.51-0.21-0.76-0.79-0.54-1.3c0.21-0.51,0.8-0.75,1.3-0.54l3.87,1.6v-2.84l-4.63-1.92c-0.51-0.21-0.76-0.79-0.54-1.3 c0.21-0.51,0.8-0.75,1.3-0.54l3.87,1.6V29c0-0.38,0.21-0.72,0.55-0.89l0.32-0.16l-5.5-2.28c-0.51-0.21-0.76-0.79-0.54-1.3 C23.04,23.86,23.63,23.62,24.13,23.83z M24.13,23.83l7.1,2.94l2.8-1.4L22,20.49v16.85l6,2.57v-2.32l-4.63-1.92 c-0.51-0.21-0.76-0.79-0.54-1.3c0.21-0.51,0.8-0.75,1.3-0.54l3.87,1.6v-2.84l-4.63-1.92c-0.51-0.21-0.76-0.79-0.54-1.3 c0.21-0.51,0.8-0.75,1.3-0.54l3.87,1.6V29c0-0.38,0.21-0.72,0.55-0.89l0.32-0.16l-5.5-2.28c-0.51-0.21-0.76-0.79-0.54-1.3 C23.04,23.86,23.63,23.62,24.13,23.83z M37.18,26.03l-0.01,0.01l-0.47,0.23L30,29.62v17.76l14-7V22.62L37.18,26.03z M42.45,38.39 l-10,5c-0.15,0.08-0.3,0.11-0.45,0.11c-0.37,0-0.72-0.2-0.89-0.55c-0.25-0.5-0.05-1.1,0.44-1.34l10-5c0.5-0.25,1.1-0.05,1.34,0.44 C43.14,37.55,42.94,38.15,42.45,38.39z M42.45,33.39l-10,5c-0.15,0.08-0.3,0.11-0.45,0.11c-0.37,0-0.72-0.2-0.89-0.55 c-0.25-0.5-0.05-1.1,0.44-1.34l10-5c0.5-0.25,1.1-0.05,1.34,0.44C43.14,32.55,42.94,33.15,42.45,33.39z M42.45,28.39l-10,5 c-0.15,0.08-0.3,0.11-0.45,0.11c-0.37,0-0.72-0.2-0.89-0.55c-0.25-0.5-0.05-1.1,0.44-1.34l10-5c0.5-0.25,1.1-0.05,1.34,0.44 C43.14,27.55,42.94,28.15,42.45,28.39z M37.18,26.03l-0.01,0.01l-0.47,0.23L30,29.62v17.76l14-7V22.62L37.18,26.03z M42.45,38.39 l-10,5c-0.15,0.08-0.3,0.11-0.45,0.11c-0.37,0-0.72-0.2-0.89-0.55c-0.25-0.5-0.05-1.1,0.44-1.34l10-5c0.5-0.25,1.1-0.05,1.34,0.44 C43.14,37.55,42.94,38.15,42.45,38.39z M42.45,33.39l-10,5c-0.15,0.08-0.3,0.11-0.45,0.11c-0.37,0-0.72-0.2-0.89-0.55 c-0.25-0.5-0.05-1.1,0.44-1.34l10-5c0.5-0.25,1.1-0.05,1.34,0.44C43.14,32.55,42.94,33.15,42.45,33.39z M42.45,28.39l-10,5 c-0.15,0.08-0.3,0.11-0.45,0.11c-0.37,0-0.72-0.2-0.89-0.55c-0.25-0.5-0.05-1.1,0.44-1.34l10-5c0.5-0.25,1.1-0.05,1.34,0.44 C43.14,27.55,42.94,28.15,42.45,28.39z M24.13,23.83l7.1,2.94l2.8-1.4L22,20.49v16.85l6,2.57v-2.32l-4.63-1.92 c-0.51-0.21-0.76-0.79-0.54-1.3c0.21-0.51,0.8-0.75,1.3-0.54l3.87,1.6v-2.84l-4.63-1.92c-0.51-0.21-0.76-0.79-0.54-1.3 c0.21-0.51,0.8-0.75,1.3-0.54l3.87,1.6V29c0-0.38,0.21-0.72,0.55-0.89l0.32-0.16l-5.5-2.28c-0.51-0.21-0.76-0.79-0.54-1.3 C23.04,23.86,23.63,23.62,24.13,23.83z M24.13,23.83l7.1,2.94l2.8-1.4L22,20.49v16.85l6,2.57v-2.32l-4.63-1.92 c-0.51-0.21-0.76-0.79-0.54-1.3c0.21-0.51,0.8-0.75,1.3-0.54l3.87,1.6v-2.84l-4.63-1.92c-0.51-0.21-0.76-0.79-0.54-1.3 c0.21-0.51,0.8-0.75,1.3-0.54l3.87,1.6V29c0-0.38,0.21-0.72,0.55-0.89l0.32-0.16l-5.5-2.28c-0.51-0.21-0.76-0.79-0.54-1.3 C23.04,23.86,23.63,23.62,24.13,23.83z M37.18,26.03l-0.01,0.01l-0.47,0.23L30,29.62v17.76l14-7V22.62L37.18,26.03z M42.45,38.39 l-10,5c-0.15,0.08-0.3,0.11-0.45,0.11c-0.37,0-0.72-0.2-0.89-0.55c-0.25-0.5-0.05-1.1,0.44-1.34l10-5c0.5-0.25,1.1-0.05,1.34,0.44 C43.14,37.55,42.94,38.15,42.45,38.39z M42.45,33.39l-10,5c-0.15,0.08-0.3,0.11-0.45,0.11c-0.37,0-0.72-0.2-0.89-0.55 c-0.25-0.5-0.05-1.1,0.44-1.34l10-5c0.5-0.25,1.1-0.05,1.34,0.44C43.14,32.55,42.94,33.15,42.45,33.39z M42.45,28.39l-10,5 c-0.15,0.08-0.3,0.11-0.45,0.11c-0.37,0-0.72-0.2-0.89-0.55c-0.25-0.5-0.05-1.1,0.44-1.34l10-5c0.5-0.25,1.1-0.05,1.34,0.44 C43.14,27.55,42.94,28.15,42.45,28.39z M37.18,26.03l-0.01,0.01l-0.47,0.23L30,29.62v17.76l14-7V22.62L37.18,26.03z M42.45,38.39 l-10,5c-0.15,0.08-0.3,0.11-0.45,0.11c-0.37,0-0.72-0.2-0.89-0.55c-0.25-0.5-0.05-1.1,0.44-1.34l10-5c0.5-0.25,1.1-0.05,1.34,0.44 C43.14,37.55,42.94,38.15,42.45,38.39z M42.45,33.39l-10,5c-0.15,0.08-0.3,0.11-0.45,0.11c-0.37,0-0.72-0.2-0.89-0.55 c-0.25-0.5-0.05-1.1,0.44-1.34l10-5c0.5-0.25,1.1-0.05,1.34,0.44C43.14,32.55,42.94,33.15,42.45,33.39z M42.45,28.39l-10,5 c-0.15,0.08-0.3,0.11-0.45,0.11c-0.37,0-0.72-0.2-0.89-0.55c-0.25-0.5-0.05-1.1,0.44-1.34l10-5c0.5-0.25,1.1-0.05,1.34,0.44 C43.14,27.55,42.94,28.15,42.45,28.39z M22.83,24.37c0.21-0.51,0.8-0.75,1.3-0.54l7.1,2.94l2.8-1.4L22,20.49v16.85l6,2.57v-2.32 l-4.63-1.92c-0.51-0.21-0.76-0.79-0.54-1.3c0.21-0.51,0.8-0.75,1.3-0.54l3.87,1.6v-2.84l-4.63-1.92c-0.51-0.21-0.76-0.79-0.54-1.3 c0.21-0.51,0.8-0.75,1.3-0.54l3.87,1.6V29c0-0.38,0.21-0.72,0.55-0.89l0.32-0.16l-5.5-2.28C22.86,25.46,22.61,24.88,22.83,24.37z M32,10c-12.15,0-22,9.85-22,22c0,12.15,9.85,22,22,22s22-9.85,22-22C54,19.85,44.15,10,32,10z M46,41c0,0.38-0.21,0.72-0.55,0.89 l-16,8C29.31,49.96,29.15,50,29,50c-0.18,0-0.37-0.05-0.53-0.15C28.18,49.67,28,49.35,28,49v-6.92l-7.39-3.16 C20.24,38.76,20,38.4,20,38V19c0-0.33,0.17-0.64,0.44-0.83c0.28-0.19,0.63-0.22,0.94-0.1l15.03,6.11l8.14-4.07 c0.31-0.16,0.68-0.14,0.98,0.04C45.82,20.33,46,20.65,46,21V41z M37.17,26.04l-0.47,0.23L30,29.62v17.76l14-7V22.62l-6.82,3.41 L37.17,26.04z M42.45,38.39l-10,5c-0.15,0.08-0.3,0.11-0.45,0.11c-0.37,0-0.72-0.2-0.89-0.55c-0.25-0.5-0.05-1.1,0.44-1.34l10-5 c0.5-0.25,1.1-0.05,1.34,0.44C43.14,37.55,42.94,38.15,42.45,38.39z M42.45,33.39l-10,5c-0.15,0.08-0.3,0.11-0.45,0.11 c-0.37,0-0.72-0.2-0.89-0.55c-0.25-0.5-0.05-1.1,0.44-1.34l10-5c0.5-0.25,1.1-0.05,1.34,0.44C43.14,32.55,42.94,33.15,42.45,33.39z M42.89,27.05c0.25,0.5,0.05,1.1-0.44,1.34l-10,5c-0.15,0.08-0.3,0.11-0.45,0.11c-0.37,0-0.72-0.2-0.89-0.55 c-0.25-0.5-0.05-1.1,0.44-1.34l10-5C42.05,26.36,42.65,26.56,42.89,27.05z M34.03,25.37L22,20.49v16.85l6,2.57v-2.32l-4.63-1.92 c-0.51-0.21-0.76-0.79-0.54-1.3c0.21-0.51,0.8-0.75,1.3-0.54l3.87,1.6v-2.84l-4.63-1.92c-0.51-0.21-0.76-0.79-0.54-1.3 c0.21-0.51,0.8-0.75,1.3-0.54l3.87,1.6V29c0-0.38,0.21-0.72,0.55-0.89l0.32-0.16l-5.5-2.28c-0.51-0.21-0.76-0.79-0.54-1.3 c0.21-0.51,0.8-0.75,1.3-0.54l7.1,2.94L34.03,25.37z M24.13,23.83l7.1,2.94l2.8-1.4L22,20.49v16.85l6,2.57v-2.32l-4.63-1.92 c-0.51-0.21-0.76-0.79-0.54-1.3c0.21-0.51,0.8-0.75,1.3-0.54l3.87,1.6v-2.84l-4.63-1.92c-0.51-0.21-0.76-0.79-0.54-1.3 c0.21-0.51,0.8-0.75,1.3-0.54l3.87,1.6V29c0-0.38,0.21-0.72,0.55-0.89l0.32-0.16l-5.5-2.28c-0.51-0.21-0.76-0.79-0.54-1.3 C23.04,23.86,23.63,23.62,24.13,23.83z M37.18,26.03l-0.01,0.01l-0.47,0.23L30,29.62v17.76l14-7V22.62L37.18,26.03z M42.45,38.39 l-10,5c-0.15,0.08-0.3,0.11-0.45,0.11c-0.37,0-0.72-0.2-0.89-0.55c-0.25-0.5-0.05-1.1,0.44-1.34l10-5c0.5-0.25,1.1-0.05,1.34,0.44 C43.14,37.55,42.94,38.15,42.45,38.39z M42.45,33.39l-10,5c-0.15,0.08-0.3,0.11-0.45,0.11c-0.37,0-0.72-0.2-0.89-0.55 c-0.25-0.5-0.05-1.1,0.44-1.34l10-5c0.5-0.25,1.1-0.05,1.34,0.44C43.14,32.55,42.94,33.15,42.45,33.39z M42.45,28.39l-10,5 c-0.15,0.08-0.3,0.11-0.45,0.11c-0.37,0-0.72-0.2-0.89-0.55c-0.25-0.5-0.05-1.1,0.44-1.34l10-5c0.5-0.25,1.1-0.05,1.34,0.44 C43.14,27.55,42.94,28.15,42.45,28.39z M37.18,26.03l-0.01,0.01l-0.47,0.23L30,29.62v17.76l14-7V22.62L37.18,26.03z M42.45,38.39 l-10,5c-0.15,0.08-0.3,0.11-0.45,0.11c-0.37,0-0.72-0.2-0.89-0.55c-0.25-0.5-0.05-1.1,0.44-1.34l10-5c0.5-0.25,1.1-0.05,1.34,0.44 C43.14,37.55,42.94,38.15,42.45,38.39z M42.45,33.39l-10,5c-0.15,0.08-0.3,0.11-0.45,0.11c-0.37,0-0.72-0.2-0.89-0.55 c-0.25-0.5-0.05-1.1,0.44-1.34l10-5c0.5-0.25,1.1-0.05,1.34,0.44C43.14,32.55,42.94,33.15,42.45,33.39z M42.45,28.39l-10,5 c-0.15,0.08-0.3,0.11-0.45,0.11c-0.37,0-0.72-0.2-0.89-0.55c-0.25-0.5-0.05-1.1,0.44-1.34l10-5c0.5-0.25,1.1-0.05,1.34,0.44 C43.14,27.55,42.94,28.15,42.45,28.39z M24.13,23.83l7.1,2.94l2.8-1.4L22,20.49v16.85l6,2.57v-2.32l-4.63-1.92 c-0.51-0.21-0.76-0.79-0.54-1.3c0.21-0.51,0.8-0.75,1.3-0.54l3.87,1.6v-2.84l-4.63-1.92c-0.51-0.21-0.76-0.79-0.54-1.3 c0.21-0.51,0.8-0.75,1.3-0.54l3.87,1.6V29c0-0.38,0.21-0.72,0.55-0.89l0.32-0.16l-5.5-2.28c-0.51-0.21-0.76-0.79-0.54-1.3 C23.04,23.86,23.63,23.62,24.13,23.83z M24.13,23.83l7.1,2.94l2.8-1.4L22,20.49v16.85l6,2.57v-2.32l-4.63-1.92 c-0.51-0.21-0.76-0.79-0.54-1.3c0.21-0.51,0.8-0.75,1.3-0.54l3.87,1.6v-2.84l-4.63-1.92c-0.51-0.21-0.76-0.79-0.54-1.3 c0.21-0.51,0.8-0.75,1.3-0.54l3.87,1.6V29c0-0.38,0.21-0.72,0.55-0.89l0.32-0.16l-5.5-2.28c-0.51-0.21-0.76-0.79-0.54-1.3 C23.04,23.86,23.63,23.62,24.13,23.83z M37.18,26.03l-0.01,0.01l-0.47,0.23L30,29.62v17.76l14-7V22.62L37.18,26.03z M42.45,38.39 l-10,5c-0.15,0.08-0.3,0.11-0.45,0.11c-0.37,0-0.72-0.2-0.89-0.55c-0.25-0.5-0.05-1.1,0.44-1.34l10-5c0.5-0.25,1.1-0.05,1.34,0.44 C43.14,37.55,42.94,38.15,42.45,38.39z M42.45,33.39l-10,5c-0.15,0.08-0.3,0.11-0.45,0.11c-0.37,0-0.72-0.2-0.89-0.55 c-0.25-0.5-0.05-1.1,0.44-1.34l10-5c0.5-0.25,1.1-0.05,1.34,0.44C43.14,32.55,42.94,33.15,42.45,33.39z M42.45,28.39l-10,5 c-0.15,0.08-0.3,0.11-0.45,0.11c-0.37,0-0.72-0.2-0.89-0.55c-0.25-0.5-0.05-1.1,0.44-1.34l10-5c0.5-0.25,1.1-0.05,1.34,0.44 C43.14,27.55,42.94,28.15,42.45,28.39z M37.18,26.03l-0.01,0.01l-0.47,0.23L30,29.62v17.76l14-7V22.62L37.18,26.03z M42.45,38.39 l-10,5c-0.15,0.08-0.3,0.11-0.45,0.11c-0.37,0-0.72-0.2-0.89-0.55c-0.25-0.5-0.05-1.1,0.44-1.34l10-5c0.5-0.25,1.1-0.05,1.34,0.44 C43.14,37.55,42.94,38.15,42.45,38.39z M42.45,33.39l-10,5c-0.15,0.08-0.3,0.11-0.45,0.11c-0.37,0-0.72-0.2-0.89-0.55 c-0.25-0.5-0.05-1.1,0.44-1.34l10-5c0.5-0.25,1.1-0.05,1.34,0.44C43.14,32.55,42.94,33.15,42.45,33.39z M42.45,28.39l-10,5 c-0.15,0.08-0.3,0.11-0.45,0.11c-0.37,0-0.72-0.2-0.89-0.55c-0.25-0.5-0.05-1.1,0.44-1.34l10-5c0.5-0.25,1.1-0.05,1.34,0.44 C43.14,27.55,42.94,28.15,42.45,28.39z M24.13,23.83l7.1,2.94l2.8-1.4L22,20.49v16.85l6,2.57v-2.32l-4.63-1.92 c-0.51-0.21-0.76-0.79-0.54-1.3c0.21-0.51,0.8-0.75,1.3-0.54l3.87,1.6v-2.84l-4.63-1.92c-0.51-0.21-0.76-0.79-0.54-1.3 c0.21-0.51,0.8-0.75,1.3-0.54l3.87,1.6V29c0-0.38,0.21-0.72,0.55-0.89l0.32-0.16l-5.5-2.28c-0.51-0.21-0.76-0.79-0.54-1.3 C23.04,23.86,23.63,23.62,24.13,23.83z M24.13,23.83l7.1,2.94l2.8-1.4L22,20.49v16.85l6,2.57v-2.32l-4.63-1.92 c-0.51-0.21-0.76-0.79-0.54-1.3c0.21-0.51,0.8-0.75,1.3-0.54l3.87,1.6v-2.84l-4.63-1.92c-0.51-0.21-0.76-0.79-0.54-1.3 c0.21-0.51,0.8-0.75,1.3-0.54l3.87,1.6V29c0-0.38,0.21-0.72,0.55-0.89l0.32-0.16l-5.5-2.28c-0.51-0.21-0.76-0.79-0.54-1.3 C23.04,23.86,23.63,23.62,24.13,23.83z M37.18,26.03l-0.01,0.01l-0.47,0.23L30,29.62v17.76l14-7V22.62L37.18,26.03z M42.45,38.39 l-10,5c-0.15,0.08-0.3,0.11-0.45,0.11c-0.37,0-0.72-0.2-0.89-0.55c-0.25-0.5-0.05-1.1,0.44-1.34l10-5c0.5-0.25,1.1-0.05,1.34,0.44 C43.14,37.55,42.94,38.15,42.45,38.39z M42.45,33.39l-10,5c-0.15,0.08-0.3,0.11-0.45,0.11c-0.37,0-0.72-0.2-0.89-0.55 c-0.25-0.5-0.05-1.1,0.44-1.34l10-5c0.5-0.25,1.1-0.05,1.34,0.44C43.14,32.55,42.94,33.15,42.45,33.39z M42.45,28.39l-10,5 c-0.15,0.08-0.3,0.11-0.45,0.11c-0.37,0-0.72-0.2-0.89-0.55c-0.25-0.5-0.05-1.1,0.44-1.34l10-5c0.5-0.25,1.1-0.05,1.34,0.44 C43.14,27.55,42.94,28.15,42.45,28.39z M37.18,26.03l-0.01,0.01l-0.47,0.23L30,29.62v17.76l14-7V22.62L37.18,26.03z M42.45,38.39 l-10,5c-0.15,0.08-0.3,0.11-0.45,0.11c-0.37,0-0.72-0.2-0.89-0.55c-0.25-0.5-0.05-1.1,0.44-1.34l10-5c0.5-0.25,1.1-0.05,1.34,0.44 C43.14,37.55,42.94,38.15,42.45,38.39z M42.45,33.39l-10,5c-0.15,0.08-0.3,0.11-0.45,0.11c-0.37,0-0.72-0.2-0.89-0.55 c-0.25-0.5-0.05-1.1,0.44-1.34l10-5c0.5-0.25,1.1-0.05,1.34,0.44C43.14,32.55,42.94,33.15,42.45,33.39z M42.45,28.39l-10,5 c-0.15,0.08-0.3,0.11-0.45,0.11c-0.37,0-0.72-0.2-0.89-0.55c-0.25-0.5-0.05-1.1,0.44-1.34l10-5c0.5-0.25,1.1-0.05,1.34,0.44 C43.14,27.55,42.94,28.15,42.45,28.39z M24.13,23.83l7.1,2.94l2.8-1.4L22,20.49v16.85l6,2.57v-2.32l-4.63-1.92 c-0.51-0.21-0.76-0.79-0.54-1.3c0.21-0.51,0.8-0.75,1.3-0.54l3.87,1.6v-2.84l-4.63-1.92c-0.51-0.21-0.76-0.79-0.54-1.3 c0.21-0.51,0.8-0.75,1.3-0.54l3.87,1.6V29c0-0.38,0.21-0.72,0.55-0.89l0.32-0.16l-5.5-2.28c-0.51-0.21-0.76-0.79-0.54-1.3 C23.04,23.86,23.63,23.62,24.13,23.83z M37.18,26.03l-0.01,0.01l-0.47,0.23L30,29.62v17.76l14-7V22.62L37.18,26.03z M42.45,38.39 l-10,5c-0.15,0.08-0.3,0.11-0.45,0.11c-0.37,0-0.72-0.2-0.89-0.55c-0.25-0.5-0.05-1.1,0.44-1.34l10-5c0.5-0.25,1.1-0.05,1.34,0.44 C43.14,37.55,42.94,38.15,42.45,38.39z M42.45,33.39l-10,5c-0.15,0.08-0.3,0.11-0.45,0.11c-0.37,0-0.72-0.2-0.89-0.55 c-0.25-0.5-0.05-1.1,0.44-1.34l10-5c0.5-0.25,1.1-0.05,1.34,0.44C43.14,32.55,42.94,33.15,42.45,33.39z M42.45,28.39l-10,5 c-0.15,0.08-0.3,0.11-0.45,0.11c-0.37,0-0.72-0.2-0.89-0.55c-0.25-0.5-0.05-1.1,0.44-1.34l10-5c0.5-0.25,1.1-0.05,1.34,0.44 C43.14,27.55,42.94,28.15,42.45,28.39z M24.13,23.83l7.1,2.94l2.8-1.4L22,20.49v16.85l6,2.57v-2.32l-4.63-1.92 c-0.51-0.21-0.76-0.79-0.54-1.3c0.21-0.51,0.8-0.75,1.3-0.54l3.87,1.6v-2.84l-4.63-1.92c-0.51-0.21-0.76-0.79-0.54-1.3 c0.21-0.51,0.8-0.75,1.3-0.54l3.87,1.6V29c0-0.38,0.21-0.72,0.55-0.89l0.32-0.16l-5.5-2.28c-0.51-0.21-0.76-0.79-0.54-1.3 C23.04,23.86,23.63,23.62,24.13,23.83z M37.18,26.03l-0.01,0.01l-0.47,0.23L30,29.62v17.76l14-7V22.62L37.18,26.03z M42.45,38.39 l-10,5c-0.15,0.08-0.3,0.11-0.45,0.11c-0.37,0-0.72-0.2-0.89-0.55c-0.25-0.5-0.05-1.1,0.44-1.34l10-5c0.5-0.25,1.1-0.05,1.34,0.44 C43.14,37.55,42.94,38.15,42.45,38.39z M42.45,33.39l-10,5c-0.15,0.08-0.3,0.11-0.45,0.11c-0.37,0-0.72-0.2-0.89-0.55 c-0.25-0.5-0.05-1.1,0.44-1.34l10-5c0.5-0.25,1.1-0.05,1.34,0.44C43.14,32.55,42.94,33.15,42.45,33.39z M42.45,28.39l-10,5 c-0.15,0.08-0.3,0.11-0.45,0.11c-0.37,0-0.72-0.2-0.89-0.55c-0.25-0.5-0.05-1.1,0.44-1.34l10-5c0.5-0.25,1.1-0.05,1.34,0.44 C43.14,27.55,42.94,28.15,42.45,28.39z M24.13,23.83l7.1,2.94l2.8-1.4L22,20.49v16.85l6,2.57v-2.32l-4.63-1.92 c-0.51-0.21-0.76-0.79-0.54-1.3c0.21-0.51,0.8-0.75,1.3-0.54l3.87,1.6v-2.84l-4.63-1.92c-0.51-0.21-0.76-0.79-0.54-1.3 c0.21-0.51,0.8-0.75,1.3-0.54l3.87,1.6V29c0-0.38,0.21-0.72,0.55-0.89l0.32-0.16l-5.5-2.28c-0.51-0.21-0.76-0.79-0.54-1.3 C23.04,23.86,23.63,23.62,24.13,23.83z" clip-rule="evenodd"/><linearGradient id="Mx9CbKvalKtwIHElcPmJ3b" x1="423.791" x2="473.609" y1="-298.607" y2="-238.275" gradientTransform="rotate(39.547 -195.938 -691.053)" gradientUnits="userSpaceOnUse"><stop offset="0" stop-color="#1a6dff"/><stop offset=".695" stop-color="#c822ff"/></linearGradient><path fill="url(#Mx9CbKvalKtwIHElcPmJ3b)" d="M15.542,52.039 C7.987,45.801,4.28,35.527,6.899,25.435C10.499,11.559,24.719,3.199,38.596,6.8l0,0c6.724,1.746,12.364,6.003,15.884,11.988 c3.519,5.986,4.496,12.985,2.752,19.709c-3.599,13.877-17.819,22.236-31.696,18.636C21.75,56.151,18.375,54.379,15.542,52.039z M47.346,13.443c-2.666-2.202-5.805-3.812-9.252-4.706l0,0c-12.81-3.324-25.935,4.392-29.259,17.2 c-3.323,12.81,4.393,25.937,17.202,29.26c12.81,3.323,25.935-4.394,29.258-17.202c1.611-6.207,0.708-12.668-2.539-18.193 C51.312,17.345,49.48,15.204,47.346,13.443z M38.345,7.768l0.008,0.006L38.345,7.768z M27.293,50.357l0.008,0.006L27.293,50.357z"/><path fill="#fff" d="M37.17,26.04c-0.14,0.12-0.3,0.2-0.47,0.23L37.17,26.04z"/></svg>