<svg fill="#228BE6" xmlns="http://www.w3.org/2000/svg"  viewBox="0 0 32 32" width="32px" height="32px"><path d="M 9.6289062 3.0058594 C 9.2912017 2.9921622 8.9544144 2.9966888 8.6210938 3.0214844 C 7.7322386 3.0876059 6.8618593 3.2928999 6.03125 3.6542969 C 3.3117336 4.8368747 1.6544472 7.4619978 1.1621094 10.544922 C 0.66967721 13.628436 1.2785232 17.221524 3.0390625 20.681641 C 5.7581479 26.031561 10.466707 29.575023 15.044922 29.898438 C 15.272657 29.931056 15.501313 29.952941 15.732422 29.966797 A 1.0001 1.0001 0 0 0 15.998047 30 C 16.008927 30 16.018437 29.996094 16.029297 29.996094 C 16.030597 29.996052 16.031903 29.996136 16.033203 29.996094 A 1.0001 1.0001 0 0 0 16.154297 29.984375 C 17.705628 30.002398 19.309927 29.628795 20.845703 28.912109 C 23.738403 27.562201 26.455588 25.051227 28.412109 21.689453 C 30.36863 18.327678 31.210277 14.722971 30.955078 11.541016 C 30.699879 8.3590605 29.304771 5.5399065 26.746094 4.0507812 C 24.187418 2.5616559 21.046997 2.7399362 18.154297 4.0898438 C 17.418078 4.4334077 16.692213 4.8527182 15.988281 5.3417969 C 13.977624 3.9470711 11.771757 3.0927729 9.6289062 3.0058594 z M 22.583984 4.9980469 C 23.72561 4.9737533 24.797121 5.2304137 25.740234 5.7792969 C 27.626461 6.8770632 28.745799 8.9923902 28.962891 11.699219 C 29.179984 14.406048 28.451288 17.64627 26.683594 20.683594 C 25.76838 22.256151 24.667701 23.606941 23.478516 24.708984 C 24.260981 23.175775 24.699219 21.516881 24.699219 19.972656 C 24.699219 17.371746 23.796043 14.591251 22.4375 12.486328 A 1.0001 1.0001 0 0 0 21.070312 12.177734 L 15.472656 15.650391 A 1.0001 1.0001 0 1 0 16.525391 17.349609 L 21.167969 14.470703 C 22.043537 16.139379 22.699219 18.16664 22.699219 19.972656 C 22.699219 21.598543 21.982588 23.700552 20.759766 25.306641 C 19.557253 26.886054 17.942115 27.954978 16.089844 27.990234 C 15.071103 27.963228 14.112067 27.718688 13.259766 27.222656 C 11.373539 26.12489 10.254202 24.00761 10.037109 21.300781 C 9.8200162 18.593954 10.546759 15.357637 12.314453 12.320312 C 14.082147 9.2829884 16.539235 7.0506847 19 5.9023438 C 20.230383 5.3281734 21.442359 5.0223405 22.583984 4.9980469 z M 8.7949219 5.0175781 C 10.54203 4.8968674 12.481988 5.4697557 14.355469 6.6523438 C 12.939052 7.9265419 11.647617 9.4902325 10.585938 11.314453 C 8.6294168 14.676228 7.7877698 18.278982 8.0429688 21.460938 C 8.1445614 22.727648 8.4357594 23.930881 8.9003906 25.021484 C 7.3293372 23.664261 5.8974162 21.890797 4.8222656 19.775391 A 1.0001 1.0001 0 0 0 4.8203125 19.775391 C 3.2308487 16.651507 2.7239008 13.44436 3.1367188 10.859375 C 3.5495366 8.2743895 4.8195229 6.3620292 6.8300781 5.4882812 C 7.4439689 5.2211782 8.1044525 5.0652838 8.7949219 5.0175781 z"/></svg>